#N canvas 439 0 1676 1126 12;
#X obj 116 468 dac~;
#X obj 194 381 vsl 15 128 0 1 0 0 empty empty empty 0 -9 0 10 #fcfcfc
#000000 #000000 0 1;
#X floatatom 223 268 5 0 0 0 - - - 0;
#X obj 226 315 osc~;
#X floatatom 103 161 5 0 0 0 - - - 0;
#X obj 223 214 * 2;
#X floatatom 289 269 5 0 0 0 - - - 0;
#X obj 292 316 osc~;
#X floatatom 352 274 5 0 0 0 - - - 0;
#X obj 355 321 osc~;
#X floatatom 414 275 5 0 0 0 - - - 0;
#X obj 417 322 osc~;
#X obj 289 215 * 3;
#X obj 352 220 * 5;
#X obj 415 221 * 7;
#X obj 103 210 osc~;
#X obj 100 68 loadbang;
#X msg 104 113 220;
#X obj 121 378 *~ 0.25;
#X connect 1 0 18 1;
#X connect 2 0 3 0;
#X connect 3 0 18 0;
#X connect 4 0 15 0;
#X connect 5 0 2 0;
#X connect 6 0 7 0;
#X connect 7 0 18 0;
#X connect 8 0 9 0;
#X connect 9 0 18 0;
#X connect 10 0 11 0;
#X connect 11 0 18 0;
#X connect 12 0 6 0;
#X connect 13 0 8 0;
#X connect 14 0 10 0;
#X connect 15 0 18 0;
#X connect 16 0 17 0;
#X connect 17 0 4 0;
#X connect 17 0 5 0;
#X connect 17 0 12 0;
#X connect 17 0 13 0;
#X connect 17 0 14 0;
#X connect 18 0 0 0;
#X connect 18 0 0 1;
