#N canvas 646 55 633 897 12;
#X obj 72 258 sel 1;
#X obj 147 112 + 1;
#X obj 73 84 bng 15 250 50 0 empty empty empty 17 7 0 10 #fcfcfc #000000
#000000;
#X obj 72 9 tgl 15 0 empty empty empty 17 7 0 10 #fcfcfc #000000 #000000
0 1;
#X floatatom 73 140 5 0 0 0 - - - 0;
#X obj 126 259 sel 2;
#X obj 184 258 sel 3;
#X obj 239 258 sel 4;
#X floatatom 73 226 5 0 0 0 - - - 0;
#X obj 73 195 + 1;
#X obj 72 290 bng 15 250 50 0 empty empty empty 17 7 0 10 #fcfcfc #000000
#000000;
#X obj 126 292 bng 15 250 50 0 empty empty empty 17 7 0 10 #fcfcfc
#000000 #000000;
#X obj 184 289 bng 15 250 50 0 empty empty empty 17 7 0 10 #fcfcfc
#000000 #000000;
#X obj 239 290 bng 15 250 50 0 empty empty empty 17 7 0 10 #fcfcfc
#000000 #000000;
#X msg 52 387 0;
#X msg 95 388 60;
#X msg 139 387 62;
#X msg 182 388 64;
#X msg 223 387 65;
#X msg 267 386 67;
#X msg 311 385 69;
#X msg 355 385 71;
#X text 97 358 c;
#X text 145 357 d;
#X text 189 357 e;
#X text 232 355 f;
#X text 355 356 b;
#X text 402 355 c;
#X msg 395 385 72;
#X obj 177 425 mtof;
#X floatatom 184 467 5 0 0 0 - - - 0;
#X floatatom 115 7 5 0 0 0 - - - 0;
#X obj 295 290 bng 15 250 50 0 empty empty empty 17 7 0 10 #fcfcfc
#000000 #000000;
#X obj 349 292 bng 15 250 50 0 empty empty empty 17 7 0 10 #fcfcfc
#000000 #000000;
#X obj 407 289 bng 15 250 50 0 empty empty empty 17 7 0 10 #fcfcfc
#000000 #000000;
#X obj 462 290 bng 15 250 50 0 empty empty empty 17 7 0 10 #fcfcfc
#000000 #000000;
#X obj 295 258 sel 5;
#X obj 349 259 sel 6;
#X obj 407 258 sel 7;
#X obj 462 258 sel 8;
#X obj 73 165 % 8;
#X text 271 359 g;
#X text 313 356 a;
#X floatatom 233 610 5 0 0 0 - - - 0;
#X obj 236 657 osc~;
#X obj 233 556 * 2;
#X floatatom 299 611 5 0 0 0 - - - 0;
#X obj 302 658 osc~;
#X floatatom 105 608 5 0 0 0 - - - 0;
#X obj 106 642 osc~;
#X obj 299 557 * 3;
#X obj 164 784 output~;
#X obj 174 551 osc~;
#X obj 106 554 / 2;
#X floatatom 50 612 5 0 0 0 - - - 0;
#X obj 53 659 osc~;
#X obj 51 558 / 3;
#X msg 117 34 tempo \$1 permin;
#X floatatom 395 663 5 0 0 0 - - - 0;
#X obj 176 733 bp~ 500;
#X floatatom 392 707 5 0 20 0 - - - 0;
#X obj 175 698 *~ 0.75;
#X obj 73 111 f;
#X obj 208 9 loadbang;
#X msg 166 9 120;
#X obj 73 60 metro;
#X text 294 12 loadbng adds value at launch;
#X text 265 39 converts milliseconds to beats per minute (BPM);
#X text 50 732 bandpass filter;
#X text 442 664 frequency range;
#X text 387 738 resonance/quality (Q) boost frequency at cutoff freq
;
#X connect 0 0 10 0;
#X connect 1 0 62 1;
#X connect 2 0 62 0;
#X connect 3 0 65 0;
#X connect 4 0 40 0;
#X connect 5 0 11 0;
#X connect 6 0 12 0;
#X connect 7 0 13 0;
#X connect 8 0 0 0;
#X connect 8 0 5 0;
#X connect 8 0 6 0;
#X connect 8 0 7 0;
#X connect 8 0 36 0;
#X connect 8 0 37 0;
#X connect 8 0 38 0;
#X connect 8 0 39 0;
#X connect 9 0 8 0;
#X connect 10 0 15 0;
#X connect 11 0 16 0;
#X connect 12 0 17 0;
#X connect 13 0 18 0;
#X connect 14 0 29 0;
#X connect 15 0 29 0;
#X connect 16 0 29 0;
#X connect 17 0 29 0;
#X connect 18 0 29 0;
#X connect 19 0 29 0;
#X connect 20 0 29 0;
#X connect 21 0 29 0;
#X connect 28 0 29 0;
#X connect 29 0 30 0;
#X connect 30 0 45 0;
#X connect 30 0 50 0;
#X connect 30 0 52 0;
#X connect 30 0 53 0;
#X connect 30 0 56 0;
#X connect 31 0 57 0;
#X connect 32 0 19 0;
#X connect 33 0 20 0;
#X connect 34 0 21 0;
#X connect 35 0 28 0;
#X connect 36 0 32 0;
#X connect 37 0 33 0;
#X connect 38 0 34 0;
#X connect 39 0 35 0;
#X connect 40 0 9 0;
#X connect 43 0 44 0;
#X connect 44 0 61 0;
#X connect 45 0 43 0;
#X connect 46 0 47 0;
#X connect 47 0 61 0;
#X connect 48 0 49 0;
#X connect 49 0 61 0;
#X connect 50 0 46 0;
#X connect 52 0 61 0;
#X connect 53 0 48 0;
#X connect 54 0 55 0;
#X connect 55 0 61 0;
#X connect 56 0 54 0;
#X connect 57 0 65 0;
#X connect 58 0 59 1;
#X connect 59 0 51 0;
#X connect 59 0 51 1;
#X connect 60 0 59 2;
#X connect 61 0 59 0;
#X connect 62 0 1 0;
#X connect 62 0 4 0;
#X connect 63 0 64 0;
#X connect 64 0 31 0;
#X connect 65 0 2 0;
