#N canvas 875 66 633 897 12;
#X obj 147 112 + 1;
#X obj 73 84 bng 15 250 50 0 empty empty empty 17 7 0 10 #fcfcfc #000000
#000000;
#X obj 72 9 tgl 15 0 empty empty empty 17 7 0 10 #fcfcfc #000000 #000000
0 1;
#X floatatom 73 140 5 0 0 0 - - - 0;
#X floatatom 73 226 5 0 0 0 - - - 0;
#X obj 73 195 + 1;
#X obj 457 296 bng 15 250 50 0 empty empty empty 17 7 0 10 #fcfcfc
#000000 #000000;
#X obj 72 292 bng 15 250 50 0 empty empty empty 17 7 0 10 #fcfcfc #000000
#000000;
#X obj 130 289 bng 15 250 50 0 empty empty empty 17 7 0 10 #fcfcfc
#000000 #000000;
#X obj 185 290 bng 15 250 50 0 empty empty empty 17 7 0 10 #fcfcfc
#000000 #000000;
#X obj 177 425 mtof;
#X floatatom 184 467 5 0 0 0 - - - 0;
#X floatatom 115 7 5 0 0 0 - - - 0;
#X obj 241 290 bng 15 250 50 0 empty empty empty 17 7 0 10 #fcfcfc
#000000 #000000;
#X obj 295 292 bng 15 250 50 0 empty empty empty 17 7 0 10 #fcfcfc
#000000 #000000;
#X obj 353 289 bng 15 250 50 0 empty empty empty 17 7 0 10 #fcfcfc
#000000 #000000;
#X obj 408 290 bng 15 250 50 0 empty empty empty 17 7 0 10 #fcfcfc
#000000 #000000;
#X obj 73 165 % 8;
#X obj 164 784 output~;
#X msg 117 34 tempo \$1 permin;
#X floatatom 286 779 5 0 0 0 - - - 0;
#X obj 175 698 *~ 0.75;
#X obj 73 111 f;
#X obj 208 9 loadbang;
#X msg 166 9 120;
#X obj 73 60 metro;
#X obj 194 227 select 0 1 2 3 4 5 6 7;
#X obj 177 390 select 0;
#X floatatom 71 337 5 0 0 0 - - - 0;
#X floatatom 128 336 5 0 0 0 - - - 0;
#X floatatom 182 334 5 0 0 0 - - - 0;
#X floatatom 236 335 5 0 0 0 - - - 0;
#X floatatom 290 334 5 0 0 0 - - - 0;
#X floatatom 351 333 5 0 0 0 - - - 0;
#X floatatom 405 331 5 0 0 0 - - - 0;
#X floatatom 459 332 5 0 0 0 - - - 0;
#X obj 180 534 phasor~;
#X obj 176 733 lop~ 500;
#X obj 297 731 hsl 128 15 0 3000 0 0 empty empty empty -2 -8 0 10 #ff8300
#000000 #000000 0 1;
#X obj 177 587 expr~ $v1 > $v2;
#X obj 273 544 / 100;
#X floatatom 276 499 5 1 100 0 - - - 0;
#X text 24 528 phase ramp signal sawtooth \, triangle \, square;
#X text 336 496 pulse width modulation;
#X text 21 732 lowpass filter;
#X text 347 779 frequency (high) cutoff;
#X connect 0 0 22 1;
#X connect 1 0 22 0;
#X connect 2 0 25 0;
#X connect 3 0 17 0;
#X connect 4 0 26 0;
#X connect 5 0 4 0;
#X connect 6 0 35 0;
#X connect 7 0 28 0;
#X connect 8 0 29 0;
#X connect 9 0 30 0;
#X connect 10 0 11 0;
#X connect 11 0 36 0;
#X connect 12 0 19 0;
#X connect 13 0 31 0;
#X connect 14 0 32 0;
#X connect 15 0 33 0;
#X connect 16 0 34 0;
#X connect 17 0 5 0;
#X connect 19 0 25 0;
#X connect 20 0 37 1;
#X connect 21 0 37 0;
#X connect 22 0 0 0;
#X connect 22 0 3 0;
#X connect 23 0 24 0;
#X connect 24 0 12 0;
#X connect 25 0 1 0;
#X connect 26 1 7 0;
#X connect 26 2 8 0;
#X connect 26 3 9 0;
#X connect 26 4 13 0;
#X connect 26 5 14 0;
#X connect 26 6 15 0;
#X connect 26 7 16 0;
#X connect 26 8 6 0;
#X connect 27 1 10 0;
#X connect 28 0 27 0;
#X connect 29 0 27 0;
#X connect 30 0 27 0;
#X connect 31 0 27 0;
#X connect 32 0 27 0;
#X connect 33 0 27 0;
#X connect 34 0 27 0;
#X connect 35 0 27 0;
#X connect 36 0 39 0;
#X connect 37 0 18 0;
#X connect 37 0 18 1;
#X connect 38 0 20 0;
#X connect 39 0 21 0;
#X connect 40 0 39 1;
#X connect 41 0 40 0;
