#N canvas 486 0 891 897 12;
#X obj 147 112 + 1;
#X obj 73 84 bng 15 250 50 0 empty empty empty 17 7 0 10 #fcfcfc #000000
#000000;
#X obj 72 9 tgl 15 0 empty empty empty 17 7 0 10 #fcfcfc #000000 #000000
0 1;
#X floatatom 73 140 5 0 0 0 - - - 0;
#X floatatom 73 226 5 0 0 0 - - - 0;
#X obj 73 195 + 1;
#X obj 457 296 bng 15 250 50 0 empty empty empty 17 7 0 10 #fcfcfc
#000000 #000000;
#X obj 72 292 bng 15 250 50 0 empty empty empty 17 7 0 10 #fcfcfc #000000
#000000;
#X obj 130 289 bng 15 250 50 0 empty empty empty 17 7 0 10 #fcfcfc
#000000 #000000;
#X obj 185 290 bng 15 250 50 0 empty empty empty 17 7 0 10 #fcfcfc
#000000 #000000;
#X obj 177 425 mtof;
#X floatatom 184 467 5 0 0 0 - - - 0;
#X floatatom 115 7 5 0 0 0 - - - 0;
#X obj 241 290 bng 15 250 50 0 empty empty empty 17 7 0 10 #fcfcfc
#000000 #000000;
#X obj 295 292 bng 15 250 50 0 empty empty empty 17 7 0 10 #fcfcfc
#000000 #000000;
#X obj 353 289 bng 15 250 50 0 empty empty empty 17 7 0 10 #fcfcfc
#000000 #000000;
#X obj 408 290 bng 15 250 50 0 empty empty empty 17 7 0 10 #fcfcfc
#000000 #000000;
#X obj 73 165 % 8;
#X floatatom 233 610 5 0 0 0 - - - 0;
#X obj 236 657 osc~;
#X obj 233 556 * 2;
#X floatatom 299 611 5 0 0 0 - - - 0;
#X obj 302 658 osc~;
#X floatatom 105 608 5 0 0 0 - - - 0;
#X obj 106 642 osc~;
#X obj 299 557 * 3;
#X obj 164 784 output~;
#X obj 174 551 osc~;
#X obj 106 554 / 2;
#X floatatom 50 612 5 0 0 0 - - - 0;
#X obj 53 659 osc~;
#X obj 51 558 / 3;
#X msg 117 34 tempo \$1 permin;
#X floatatom 301 792 5 0 0 0 - - - 0;
#X obj 176 733 bp~ 500;
#X floatatom 273 710 5 0 20 0 - - - 0;
#X obj 175 698 *~ 0.75;
#X obj 73 111 f;
#X obj 208 9 loadbang;
#X msg 166 9 120;
#X obj 73 60 metro;
#X obj 194 227 select 0 1 2 3 4 5 6 7;
#X obj 177 390 select 0;
#X floatatom 71 337 5 0 0 0 - - - 0;
#X floatatom 128 336 5 0 0 0 - - - 0;
#X floatatom 182 334 5 0 0 0 - - - 0;
#X floatatom 236 335 5 0 0 0 - - - 0;
#X floatatom 290 334 5 0 0 0 - - - 0;
#X floatatom 351 333 5 0 0 0 - - - 0;
#X floatatom 405 331 5 0 0 0 - - - 0;
#X floatatom 459 332 5 0 0 0 - - - 0;
#X text 399 190 select object compares numbers against control if no
bangs and moves in sequence;
#X connect 0 0 37 1;
#X connect 1 0 37 0;
#X connect 2 0 40 0;
#X connect 3 0 17 0;
#X connect 4 0 41 0;
#X connect 5 0 4 0;
#X connect 6 0 50 0;
#X connect 7 0 43 0;
#X connect 8 0 44 0;
#X connect 9 0 45 0;
#X connect 10 0 11 0;
#X connect 11 0 20 0;
#X connect 11 0 25 0;
#X connect 11 0 27 0;
#X connect 11 0 28 0;
#X connect 11 0 31 0;
#X connect 12 0 32 0;
#X connect 13 0 46 0;
#X connect 14 0 47 0;
#X connect 15 0 48 0;
#X connect 16 0 49 0;
#X connect 17 0 5 0;
#X connect 18 0 19 0;
#X connect 19 0 36 0;
#X connect 20 0 18 0;
#X connect 21 0 22 0;
#X connect 22 0 36 0;
#X connect 23 0 24 0;
#X connect 24 0 36 0;
#X connect 25 0 21 0;
#X connect 27 0 36 0;
#X connect 28 0 23 0;
#X connect 29 0 30 0;
#X connect 30 0 36 0;
#X connect 31 0 29 0;
#X connect 32 0 40 0;
#X connect 33 0 34 1;
#X connect 34 0 26 0;
#X connect 34 0 26 1;
#X connect 35 0 34 2;
#X connect 36 0 34 0;
#X connect 37 0 0 0;
#X connect 37 0 3 0;
#X connect 38 0 39 0;
#X connect 39 0 12 0;
#X connect 40 0 1 0;
#X connect 41 1 7 0;
#X connect 41 2 8 0;
#X connect 41 3 9 0;
#X connect 41 4 13 0;
#X connect 41 5 14 0;
#X connect 41 6 15 0;
#X connect 41 7 16 0;
#X connect 41 8 6 0;
#X connect 42 1 10 0;
#X connect 43 0 42 0;
#X connect 44 0 42 0;
#X connect 45 0 42 0;
#X connect 46 0 42 0;
#X connect 47 0 42 0;
#X connect 48 0 42 0;
#X connect 49 0 42 0;
#X connect 50 0 42 0;
