#N canvas 535 31 1051 885 12;
#X obj 147 255 osc~;
#X obj 140 300 *~ 0.5;
#X obj 143 356 dac~;
#X obj 71 262 vsl 15 128 0 1 0 0 empty empty empty 0 -9 0 10 #ff8300
#000000 #000000 0 1;
#X msg 26 185 0;
#X msg 69 186 60;
#X msg 113 185 62;
#X msg 156 186 64;
#X msg 197 185 65;
#X msg 241 184 67;
#X msg 285 183 69;
#X msg 329 183 71;
#X text 71 156 c;
#X text 119 155 d;
#X text 163 155 e;
#X text 206 153 f;
#X text 247 152 g;
#X text 292 154 a;
#X text 329 154 b;
#X text 376 153 c;
#X msg 369 183 72;
#X obj 151 223 mtof;
#X floatatom 220 245 5 0 0 0 - - - 0;
#X connect 0 0 1 0;
#X connect 1 0 2 0;
#X connect 1 0 2 1;
#X connect 3 0 1 1;
#X connect 4 0 21 0;
#X connect 5 0 21 0;
#X connect 6 0 21 0;
#X connect 7 0 21 0;
#X connect 8 0 21 0;
#X connect 9 0 21 0;
#X connect 10 0 21 0;
#X connect 11 0 21 0;
#X connect 20 0 21 0;
#X connect 21 0 22 0;
#X connect 21 0 0 0;
